<svg viewBox="0 0 1050 470" xmlns="http://www.w3.org/2000/svg"><style>.plate{fill:#ecfccb}.globe{fill:#365314}.letters{fill:#713f12}@media (prefers-color-scheme:dark){.plate{fill:#365314}.globe{fill:#84cc16}.letters{fill:#eab308}}@media print{.plate{fill:#e5e5e5}.globe{fill:#000000}.letters{fill:#000000}}</style><path d="M221.39 310.756c-81.017.224-138.728.379-142.593.379C32.347 311.135 0 277.948 0 232.47c0-44.334 33.312-78.67 78.797-78.67 13.89 0 30.78 3.888 42.171 11.071 9.076 5.722 15.354 13.285 18.337 22.134 0 0 20.439-.056 25.37-.056h49.141C236.02 80.262 330.654 0 443.89 0c113.235 0 207.87 80.262 230.073 186.95h62.15c15.202 0 25.823 5.791 33.046 13.81 4.02 4.463 7.082 9.877 8.948 16.054 8.572-9.18 21.19-12.623 32.916-10.636l8.693-42.384.019-.093c7.96-38.067 64.591-37.436 71.399 1.03l8.929 50.094c17.666-15.783 49.32-11.066 58.663 14.03l2.99 8.024a35.678 35.678 0 0 1 5.555-.438h46.413c23.916-.26 36.312 17.834 36.312 36.363 0 18.53-12.396 36.623-36.294 36.363h-26.168l-8.65 13.994c-11.231 18.18-34.536 21.28-50.614 11.263l-8.26 21.738-.024.065c-12.863 33.576-63.405 28.89-69.761-6.575l-.004-.026-2.712-15.215c-17.979 10.772-44.888 5.63-53.52-17.68l-2.836-7.606a35.57 35.57 0 0 1-1.719.042l-122.624.346c-31.187 93.223-119.26 160.485-222.92 160.485-103.198 0-190.949-66.664-222.5-159.242Z" class="plate"/><path d="M636.782 314.6a8.875 8.875 0 0 1-.723 3.487c-9.4 22.113-22.39 42.144-38.659 59.786l.145.11-6.654 6.59c-19.154 19.022-41.43 33.946-66.21 44.368-21.642 9.1-44.42 14.305-67.86 15.755-4.283.264-8.6.288-12.933.288-4.323 0-8.64-.024-12.928-.288-23.44-1.45-46.218-6.655-67.86-15.755-24.78-10.422-47.056-25.346-66.21-44.368l-6.648-6.59.145-.11c-16.275-17.642-29.265-37.673-38.665-59.786-2.494-5.864 1.806-12.374 8.182-12.374h.74a9.021 9.021 0 0 1 8.286 5.46c8.345 19.246 20.031 37.742 34.747 53.78.04.034.093.034.121.01 10.475-9.499 21.79-17.918 33.847-25.056.035-.018.051-.058.046-.104-2.407-7.278-4.553-14.907-6.424-22.588-1.419-5.852 2.996-11.502 9.026-11.502 4.265 0 7.994 2.898 9.009 7.047 1.5 6.117 3.192 12.28 5.05 18.15.023.052.08.075.126.052 2.846-1.345 5.673-2.747 8.587-3.977 22.9-9.632 46.728-15.016 71.9-16.066.04 0 .082-.047.082-.087 0-2.833 2.666-6.833 8.84-6.833 6.181 0 8.847 4 8.847 6.833 0 .04.041.087.088.087 25.172 1.05 49 6.434 71.893 16.066 2.915 1.23 5.742 2.632 8.588 3.977.046.023.11 0 .127-.052 1.858-5.87 3.55-12.033 5.05-18.15 1.014-4.15 4.743-7.047 9.013-7.047 6.025 0 10.44 5.65 9.02 11.502-1.87 7.681-4.01 15.31-6.423 22.588-.005.046.011.086.047.104 12.055 7.138 23.371 15.557 33.846 25.057a.089.089 0 0 0 .116-.012c14.72-16.037 26.407-34.533 34.752-53.78a9.027 9.027 0 0 1 8.287-5.459h.739c5.124 0 8.905 4.196 8.905 8.888Zm-66.055 63.43a.086.086 0 0 0 0-.14 190.944 190.944 0 0 0-27.135-20.336c-.052-.035-.116-.012-.127.04-3.56 8.576-7.513 16.748-11.848 24.418-7.525 13.312-15.95 24.704-25.155 34.048.167-.058.34-.122.513-.18l.791-.277c.52-.19 1.04-.38 1.564-.565.254-.092.503-.185.767-.282.624-.225 1.236-.462 1.853-.7l.572-.23c.502-.19 1.004-.387 1.506-.583.265-.11.53-.214.79-.323.433-.168.86-.34 1.287-.513.277-.115.572-.237.854-.358.398-.167.797-.34 1.2-.502.3-.127.6-.254.889-.381.381-.173.779-.335 1.172-.513.3-.133.594-.266.894-.394l1.143-.513c.3-.138.606-.277.906-.41.37-.178.75-.352 1.125-.525.295-.138.606-.282.906-.426.376-.185.745-.364 1.114-.543.312-.144.6-.288.9-.434.375-.178.75-.368 1.126-.541.288-.157.589-.306.877-.45.375-.185.75-.381 1.125-.572.289-.15.583-.295.871-.45.376-.19.763-.392 1.137-.6.284-.144.56-.288.843-.44.387-.206.78-.42 1.166-.622.26-.15.536-.295.808-.444.398-.225.808-.444 1.212-.664.248-.15.496-.282.745-.42.437-.261.882-.515 1.338-.769l.606-.352c.612-.358 1.234-.716 1.846-1.085.03-.01.052-.029.081-.04.647-.393 1.288-.785 1.928-1.178.162-.098.317-.185.479-.288.48-.3.958-.59 1.431-.9l.664-.416c.415-.265.825-.52 1.234-.784.295-.197.595-.405.912-.601.295-.19.606-.392.912-.594.271-.19.548-.37.82-.554.363-.248.732-.496 1.102-.745.265-.179.526-.357.785-.537.363-.248.721-.496 1.085-.743l1.841-1.306c.26-.19.519-.374.785-.565.352-.253.698-.507 1.05-.768.254-.19.52-.374.779-.57.347-.254.698-.52 1.05-.774.243-.196.502-.392.756-.588a121.2 121.2 0 0 1 1.05-.797c.249-.196.502-.386.75-.582.358-.272.699-.554 1.063-.837.23-.185.473-.37.71-.566.37-.295.726-.583 1.096-.871.22-.19.45-.37.68-.554.376-.318.763-.624 1.137-.94.203-.175.41-.342.612-.515.439-.363.861-.732 1.299-1.096.145-.122.294-.255.438-.37 1.108-.946 2.2-1.921 3.29-2.89Zm-117.894 47.83c23.401-3.81 45.308-22.283 62.666-52.996 4.3-7.606 8.126-15.749 11.594-24.32.024-.05-.005-.108-.046-.12-22.992-11.206-48.194-17.682-74.22-18.894a.09.09 0 0 0-.093.092v96.15a.089.089 0 0 0 .099.087Zm-17.786-.088v-96.15a.09.09 0 0 0-.093-.092c-26.027 1.212-51.223 7.688-74.22 18.894-.04.012-.063.07-.046.12 3.474 8.571 7.295 16.714 11.594 24.32 17.36 30.713 39.265 49.186 62.666 52.995a.089.089 0 0 0 .099-.087Zm-54.236-9.892c.168.058.34.122.508.18-9.204-9.344-17.63-20.736-25.156-34.048-4.333-7.67-8.286-15.842-11.84-24.418a.088.088 0 0 0-.134-.04 191.259 191.259 0 0 0-27.135 20.337.088.088 0 0 0 0 .138c1.091.97 2.181 1.945 3.295 2.891.144.115.29.248.433.37.439.364.866.733 1.299 1.096.201.173.409.34.617.514.369.317.756.623 1.131.94.23.185.461.364.68.555.37.288.729.576 1.098.87.237.197.473.382.715.567.358.283.698.565 1.056.837.248.196.502.386.75.582a109.373 109.373 0 0 1 1.812 1.385c.347.254.7.52 1.045.774.26.196.525.38.779.57.352.26.704.515 1.05.768.266.19.53.376.786.565l1.84 1.306c.364.247.722.495 1.09.743.255.18.52.358.78.537.37.249.738.497 1.102.745.277.184.548.364.82.554.306.202.617.403.917.594.312.196.612.404.912.6.41.265.819.52 1.229.785l.664.416c.473.31.953.6 1.431.9.162.103.317.19.479.288.64.393 1.28.785 1.928 1.178.029.011.052.03.08.04.612.37 1.235.727 1.847 1.085.208.122.41.237.611.352.451.254.896.508 1.34.768.248.139.49.27.738.421.404.22.814.439 1.212.664.277.15.549.293.814.444.38.202.773.416 1.16.623.283.15.566.295.843.439.374.208.76.41 1.136.6.289.155.583.3.871.45.376.19.75.387 1.126.572.288.144.588.293.878.45.374.173.75.363 1.13.541.295.146.584.29.895.434.375.18.738.358 1.12.543.294.144.605.288.906.426.369.173.75.347 1.119.525.3.133.611.272.906.41.387.173.762.34 1.142.513.3.128.601.26.901.394.392.178.785.34 1.166.513.288.127.588.254.889.38.404.163.802.336 1.2.503.282.12.571.243.854.358.433.173.854.345 1.293.513.254.11.52.214.784.323.502.196 1.004.393 1.506.583l.572.23c.617.238 1.229.475 1.852.7.272.097.515.19.768.282.526.185 1.044.375 1.564.565l.796.277ZM636.06 151.897c2.493 5.863-1.806 12.373-8.182 12.373h-.74a9.026 9.026 0 0 1-8.286-5.46c-8.345-19.245-20.031-37.747-34.752-53.778a.089.089 0 0 0-.117-.012c-10.474 9.499-21.79 17.913-33.845 25.058-.036.016-.052.057-.047.103 2.412 7.277 4.553 14.907 6.423 22.588 1.42 5.851-2.995 11.501-9.02 11.501-4.27 0-7.999-2.897-9.014-7.046-1.5-6.123-3.19-12.281-5.05-18.156-.017-.052-.08-.074-.126-.052-2.846 1.356-5.673 2.754-8.588 3.982-22.893 9.632-46.721 15.016-71.894 16.067a.089.089 0 0 0-.087.086c0 2.834-2.666 6.833-8.846 6.833-6.175 0-8.841-3.999-8.841-6.833 0-.045-.041-.086-.081-.086-25.173-1.05-49.001-6.435-71.9-16.067-2.915-1.228-5.742-2.626-8.588-3.982-.045-.022-.103 0-.126.052-1.858 5.875-3.55 12.033-5.05 18.156-1.015 4.149-4.744 7.046-9.009 7.046-6.03 0-10.445-5.65-9.026-11.501 1.87-7.68 4.017-15.31 6.424-22.588.005-.046-.011-.087-.046-.103-12.056-7.145-23.372-15.56-33.847-25.058-.028-.023-.08-.023-.121.012-14.716 16.03-26.402 34.533-34.747 53.779a9.02 9.02 0 0 1-8.287 5.46h-.739c-5.119 0-8.904-4.196-8.904-8.888 0-1.154.236-2.332.722-3.486 9.4-22.108 22.39-42.15 38.665-59.787l-.145-.11 6.648-6.59c19.154-19.02 41.43-33.944 66.21-44.366 21.642-9.101 44.42-14.312 67.86-15.755 4.288-.266 8.605-.29 12.928-.29 4.333 0 8.65.024 12.932.29 23.442 1.443 46.22 6.654 67.861 15.755 24.78 10.422 47.056 25.346 66.21 44.366l6.654 6.59-.145.11c16.268 17.637 29.259 37.679 38.66 59.787Zm-109.012-30.338a.09.09 0 0 0 .046-.12c-3.468-8.577-7.295-16.714-11.594-24.32-17.358-30.713-39.265-49.185-62.666-52.994-.052-.005-.099.035-.099.081v96.155c0 .052.041.092.093.092 26.026-1.21 51.228-7.692 74.22-18.894Zm43.68-29.466a.086.086 0 0 0 0-.139 191.743 191.743 0 0 0-3.29-2.89c-.144-.116-.293-.249-.438-.37-.438-.363-.86-.728-1.299-1.097l-.612-.513c-.374-.318-.76-.623-1.136-.94a41.806 41.806 0 0 1-.68-.554c-.37-.29-.728-.578-1.098-.872-.236-.197-.478-.382-.709-.571-.364-.277-.705-.56-1.062-.831-.249-.203-.502-.387-.75-.583-.353-.266-.699-.532-1.05-.797-.255-.196-.514-.392-.757-.588-.352-.255-.703-.52-1.05-.773-.26-.196-.525-.387-.779-.578-.352-.253-.698-.508-1.05-.767a36.975 36.975 0 0 1-.785-.56l-1.841-1.31c-.364-.242-.722-.49-1.085-.739a74.481 74.481 0 0 0-.785-.536c-.37-.248-.739-.496-1.102-.745-.272-.185-.549-.363-.82-.554-.306-.208-.617-.404-.912-.595-.317-.196-.617-.403-.912-.599-.409-.266-.819-.52-1.234-.786l-.664-.415c-.473-.311-.952-.6-1.431-.894a7.444 7.444 0 0 0-.48-.295c-.64-.392-1.28-.785-1.927-1.177-.029-.005-.051-.029-.08-.046-.613-.364-1.235-.722-1.847-1.08-.208-.12-.41-.242-.606-.352-.456-.254-.9-.513-1.338-.767-.249-.138-.497-.271-.745-.42-.404-.22-.814-.44-1.212-.664-.272-.151-.549-.295-.808-.445-.387-.202-.779-.415-1.166-.623a26.8 26.8 0 0 0-.843-.445c-.374-.201-.761-.41-1.137-.594-.288-.156-.582-.3-.87-.45-.376-.191-.75-.387-1.126-.571-.288-.151-.589-.295-.877-.445-.375-.18-.751-.37-1.125-.548-.3-.144-.589-.29-.901-.439-.37-.173-.738-.358-1.114-.53-.3-.151-.611-.295-.906-.434-.375-.173-.756-.346-1.125-.525-.3-.139-.606-.271-.906-.41-.387-.173-.761-.34-1.143-.513-.3-.127-.595-.266-.894-.392-.393-.18-.79-.342-1.172-.514-.288-.127-.588-.254-.889-.382-.403-.16-.802-.334-1.2-.501-.282-.121-.577-.242-.854-.364a76.393 76.393 0 0 1-1.286-.513c-.26-.104-.526-.208-.791-.323-.502-.191-1.004-.387-1.506-.578l-.572-.23a54.174 54.174 0 0 0-1.853-.698c-.264-.093-.513-.19-.767-.284-.525-.19-1.044-.374-1.564-.565l-.791-.277c-.173-.063-.346-.12-.513-.178 9.204 9.342 17.63 20.734 25.155 34.048 4.335 7.67 8.287 15.841 11.848 24.41.011.058.075.076.127.047a191.456 191.456 0 0 0 27.135-20.337Zm-135.68 48.268V44.206c0-.046-.047-.086-.099-.08-23.401 3.808-45.307 22.28-62.666 52.994-4.3 7.605-8.12 15.742-11.594 24.318-.017.053.006.105.046.121 22.997 11.202 48.193 17.683 74.22 18.894a.09.09 0 0 0 .093-.092Zm-90.725-27.977c3.555-8.57 7.508-16.741 11.841-24.411 7.526-13.314 15.952-24.706 25.156-34.048-.167.057-.34.115-.508.178l-.796.277c-.52.19-1.038.376-1.564.565-.253.093-.496.19-.768.284-.623.22-1.235.455-1.852.698l-.572.23c-.502.19-1.004.387-1.506.578-.265.115-.53.219-.784.323-.439.178-.86.346-1.293.513-.283.122-.572.243-.855.364-.397.167-.795.34-1.2.501-.3.128-.6.255-.888.382-.381.172-.774.334-1.166.514-.3.126-.6.265-.9.392-.38.173-.756.34-1.143.513-.295.139-.606.271-.906.41-.37.18-.75.352-1.12.525-.3.139-.611.283-.906.433-.38.173-.744.358-1.119.531-.311.15-.6.295-.895.439-.38.178-.756.369-1.13.548-.29.15-.59.294-.878.445-.376.184-.75.38-1.126.57-.288.151-.582.295-.87.451-.376.184-.763.393-1.137.594-.277.144-.56.288-.844.445-.386.208-.779.42-1.159.623-.265.15-.537.294-.814.445-.398.225-.808.444-1.212.663-.248.15-.49.283-.738.421-.444.254-.889.513-1.34.767-.201.11-.403.232-.611.353-.612.357-1.235.715-1.846 1.079-.03.017-.052.04-.081.046-.647.392-1.288.785-1.928 1.177a7.444 7.444 0 0 0-.479.295c-.478.294-.958.583-1.431.894l-.664.415c-.41.266-.819.52-1.229.786-.3.196-.6.403-.912.6-.3.19-.611.386-.917.594-.272.191-.543.37-.82.554-.364.249-.732.497-1.103.745-.259.178-.524.357-.779.536-.368.248-.726.497-1.09.74l-1.84 1.309c-.255.19-.52.375-.786.56-.346.259-.698.514-1.05.767-.254.191-.519.382-.78.578-.345.253-.697.518-1.044.773-.248.196-.502.392-.761.588-.353.265-.698.531-1.05.797-.249.196-.503.38-.75.583-.359.27-.699.554-1.057.831-.242.19-.478.374-.715.57-.37.295-.727.583-1.097.873a41.806 41.806 0 0 1-.68.554c-.376.317-.763.622-1.132.94l-.617.513c-.433.37-.86.734-1.299 1.097-.144.121-.289.254-.433.37a176.602 176.602 0 0 0-3.295 2.89.088.088 0 0 0 0 .139 191.773 191.773 0 0 0 27.135 20.337c.052.03.115.011.133-.046Z" class="globe"/><path d="M78.798 258.118c10.26 0 14.732-8.154 23.28-8.154 7.894 0 14.6 6.839 14.6 14.733 0 14.203-22.097 21.44-37.88 21.44-31.7 0-53.798-22.628-53.798-53.664 0-30.258 22.756-53.67 53.798-53.67 15.783 0 37.488 6.446 37.488 20.521 0 8.287-6.972 14.203-14.208 14.203-8.022 0-11.311-6.839-23.28-6.839-13.943 0-24.99 10.526-24.99 25.785 0 13.81 11.18 25.645 24.99 25.645Zm123.626-11.708v24.993c0 6.972-5.655 12.76-12.627 12.76-5.522 0-10.52-3.815-11.968-8.813 0 0-8.42 9.603-23.28 9.603-15.391 0-26.835-9.343-26.835-23.81 0-15.65 13.025-23.806 29.334-23.806 11.443 0 19.205 5.524 19.205 5.524v-3.682c0-5.789-6.711-9.737-15.916-9.737-8.813 0-11.71 3.03-17.365 3.03-4.865 0-8.945-3.555-8.945-8.552 0-11.837 23.546-11.969 30.65-11.969 22.23 0 37.747 8.021 37.747 34.459Zm-26.171 14.733c0-5.657-4.87-9.206-11.184-9.206-7.104 0-11.57 3.55-11.57 9.206 0 5.522 5.655 8.02 11.57 8.02 5.788 0 11.184-2.757 11.184-8.02Zm36.553 10.127v-45.377c0-7.236 5.789-13.152 13.02-13.152 7.103 0 12.366 5.916 12.5 13.02 1.442-4.208 5.655-12.887 15.65-12.887 5.655 0 10.786 4.6 10.786 10.78 0 16.707-25.912 5.662-25.912 32.49v15.126c0 7.105-5.788 12.893-13.152 12.893-7.103 0-12.892-5.788-12.892-12.893Zm87.2 12.102h-19.465a8.533 8.533 0 0 1-8.553-8.547V190.12a8.535 8.535 0 0 1 8.553-8.553h24.463c29.593 0 58.795 9.47 58.795 49.192 0 45.51-36.04 52.613-63.792 52.613Zm.918-80.101v58.27h2.765c21.703 0 31.433-11.71 31.433-30.257 0-20.257-12.886-27.62-34.198-28.013Zm70.886 67.866v-45.376c0-7.231 5.787-13.02 13.019-13.02 7.37 0 13.158 5.789 13.158 13.02v45.376c0 7.238-5.789 13.026-13.158 13.026a12.968 12.968 0 0 1-13.02-13.026Zm0-81.017a8.534 8.534 0 0 1 8.551-8.553h9.073a8.535 8.535 0 0 1 8.553 8.553v5.522a8.532 8.532 0 0 1-8.553 8.546h-9.073a8.532 8.532 0 0 1-8.551-8.546v-5.522Zm72.206 94.833c-23.414 0-38.014-16.44-38.014-36.437 0-20.257 14.733-36.565 38.014-36.565 23.146 0 38.146 16.574 38.146 36.565 0 19.73-14.341 36.437-38.146 36.437Zm12.892-36.437c0-6.839-5.53-12.887-12.892-12.887-7.105 0-12.76 5.915-12.76 12.887 0 6.839 5.788 12.759 12.76 12.759 7.236 0 12.892-5.92 12.892-12.76Zm73.777 4.207-11.969-30.12v47.352a14.147 14.147 0 0 1-14.208 14.208c-8.02 0-14.334-6.313-14.334-14.208v-67.74c0-11.836 9.602-21.439 21.439-21.439 9.077 0 16.966 5.396 20.123 13.81l10.261 27.228 11.836-28.278c3.29-7.89 10.659-12.76 19.338-12.76 11.703 0 21.041 9.344 21.041 20.914v68.397c0 7.763-6.313 14.076-14.202 14.076-7.762 0-14.075-6.313-14.075-14.076V222.47l-13.153 30.517c-1.973 4.473-6.047 7.236-10.918 7.236-5.13 0-9.337-2.896-11.179-7.5Zm109.815 32.23c-23.412 0-38.013-16.44-38.013-36.437 0-20.257 14.733-36.565 38.013-36.565 23.148 0 38.146 16.574 38.146 36.565 0 19.73-14.34 36.437-38.146 36.437Zm12.893-36.437c0-6.839-5.53-12.887-12.893-12.887-7.104 0-12.759 5.915-12.759 12.887 0 6.839 5.788 12.759 12.759 12.759 7.238 0 12.893-5.92 12.893-12.76Zm86.3 35.443c-6.239-1.096-10.941-6.502-10.941-12.948v-25.652c0-4.732-.398-11.704-7.895-11.704-7.237 0-8.022 6.441-8.022 11.444v26.038c0 7.238-5.787 13.026-13.158 13.026a12.97 12.97 0 0 1-13.02-13.026v-46.035c0-7.23 5.922-13.15 13.153-13.15 8.155 0 13.025 6.18 13.025 11.05 4.34-4.87 11.837-11.05 23.28-11.05 13.153 0 19.073 8.286 19.073 19.464v30.026h27.167l12.223-24.89c4.287-8.828 17.414-8.064 20.85 1.033l9.465 25.398 19.315-94.164c2.488-11.898 20.187-11.731 22.316.3L889.995 300.8l24.035-63.283c3.642-9.591 17.693-9.545 21.272.068l15.19 40.761 7.116-11.508c2.044-3.322 5.765-5.396 9.666-5.396h46.582c14.857-.228 14.858 22.955 0 22.727H973.6l-15.98 25.853c-4.882 7.902-17.06 6.68-20.32-1.997l-12.748-34.197-27.908 73.457c-4.02 10.496-19.821 9.043-21.809-2.042l-20.272-113.768-15.357 74.865c-2.24 10.889-17.92 12.172-21.78 1.685l-14.08-37.77-3.711 7.554c-1.883 3.858-5.908 6.36-10.197 6.36h-47.192a12.782 12.782 0 0 1-2.553-.21Z" class="letters"/></svg>